<?xml version="1.0" encoding="utf-8"?>
<!-- Generator: Adobe Illustrator 23.1.1, SVG Export Plug-In . SVG Version: 6.00 Build 0)  -->
<svg version="1.1" id="Artwork" xmlns="http://www.w3.org/2000/svg" xmlns:xlink="http://www.w3.org/1999/xlink" x="0px" y="0px"
	 width="451.9199829px" height="83.4700012px" viewBox="0 0 451.9199829 83.4700012"
	 enable-background="new 0 0 451.9199829 83.4700012" xml:space="preserve">
<g>
	<g>
		<path fill="#FFFFFF" d="M103.9559937,81.2733002H92.5301971L75.6112976,17.8596992h12.5682983l10.5468979,47.1978035h0.3516006
			l12.4365005-47.1978035h10.5028992l12.392601,47.1978035h0.3515015l10.5908966-47.1978035h12.5244141L140.957901,81.2733002
			h-11.3818054l-12.6122971-44.8246994h-0.4394989L103.9559937,81.2733002z"/>
		<path fill="#FFFFFF" d="M188.5737,81.2733002h-11.4257965l-16.9190063-63.4136009h12.5684052l10.5468903,47.1978035h0.3515015
			l12.4365997-47.1978035h10.5028992l12.3926086,47.1978035h0.3514862l10.5913086-47.1978035h12.5240021l-16.9185028,63.4136009
			h-11.3822937l-12.6123047-44.8246994h-0.4394989L188.5737,81.2733002z"/>
		<path fill="#FFFFFF" d="M272.137085,17.8596992c18.9844055,0,30.1465149,11.4258003,30.1465149,31.5093002
			c0,20.1269035-11.1621094,31.9043007-30.1465149,31.9043007h-23.598587V17.8596992H272.137085z M260.6673889,71.1659012
			h10.1073914c12.3926086,0,19.1602173-7.6026001,19.1602173-21.7530022c0-13.8432007-6.8994141-21.4457989-19.1602173-21.4457989
			h-10.1073914V71.1659012z"/>
		<path fill="#FFFFFF" d="M307.8432007,49.5447998c0-20.303299,11.5137024-32.7397995,29.6630859-32.7397995
			c14.9852905,0,26.3232117,9.3603992,27.5537109,23.2030983H353.238678
			c-1.4062805-7.8661995-7.6903992-13.0516987-15.7323914-13.0516987c-10.5029907,0-17.3144836,8.7451-17.3144836,22.5883999
			c0,13.9305992,6.7236938,22.6317978,17.3583984,22.6317978c8.217804,0,14.1064758-4.5702972,15.6884766-12.1288986h11.8652344
			c-1.8017273,13.7987976-12.3486328,22.280304-27.5976257,22.280304
			C319.2689819,82.3280029,307.8432007,69.9354019,307.8432007,49.5447998z"/>
		<path fill="#FFFFFF" d="M393.6479187,16.5414009c13.1835632,0,21.9286804,7.910099,21.9286804,18.2812004
			c0,7.6029968-3.647522,12.480999-14.5899048,23.1156998l-13.710907,13.3154984v0.2197037h29.2676086v9.7997971h-45.1758118
			v-8.2617035l22.4121094-21.7529984c8.1737976-7.9540977,9.9755859-11.1185989,9.9755859-15.6889
			c0-5.3613987-4.0429993-9.4482975-10.1073608-9.4482975c-6.679718,0-11.6895142,4.4825001-11.6895142,10.8105984h-11.2939148
			C370.6644897,24.9789009,380.200592,16.5414009,393.6479187,16.5414009z"/>
		<path fill="#FFFFFF" d="M438.9671936,29.1975994h-0.2637024l-16.3037109,11.1620998v-10.9424l16.5234985-11.5576h11.9970093
			v63.4136009h-11.9530945V29.1975994z"/>
	</g>
	<g>
		<path fill="#FFFFFF" d="M49.8902969,19.9251995c-6.7895966-0.5023003-12.5496979,3.7924004-15.7635994,3.7924004
			c-3.260498,0-8.2874985-3.6840992-13.6178989-3.5834007c-6.9990988,0.1026001-13.449894,4.0727005-17.0588951,10.3393002
			C-3.8197,43.0918007,1.5942,61.7893982,8.6750994,72.0287018c3.4637003,5.0032959,7.5948038,10.6412964,13.0208998,10.4360962
			c5.2227993-0.2055969,7.198904-3.3780975,13.5121002-3.3780975c6.3093987,0,8.0894012,3.3780975,13.6124001,3.2769012
			c5.6216011-0.1044006,9.183403-5.1069031,12.6217995-10.1379013c3.9786072-5.8071976,5.6137009-11.4301987,5.710701-11.7272987
			c-0.1244049-0.0472031-10.9582024-4.203701-11.0665016-16.6857033
			c-0.0978012-10.4354973,8.5179024-15.4516983,8.9096031-15.6931992
			C60.1054993,20.9167004,52.5513992,20.1224003,49.8902969,19.9251995z"/>
		<path fill="#FFFFFF" d="M45.7009048,13.1659002C48.5844994,9.6808996,50.5245972,4.8274002,49.9903984,0
			c-4.1502991,0.1646-9.1697006,2.7644999-12.1464958,6.2473001c-2.6657028,3.0852003-5.0068016,8.0264997-4.3712044,12.7554007
			C38.0984993,19.3600998,42.8196983,16.6530991,45.7009048,13.1659002z"/>
	</g>
</g>
<g>
</g>
<g>
</g>
<g>
</g>
<g>
</g>
<g>
</g>
<g>
</g>
</svg>
